#!OML:ASF H:\Terrain\Walking\May29\JustinRory\Justin.ASF
:FULLY-SPECIFIED
:DEGREES
913
root 7.26688 17.5629 -15.6967 -0.479618 -2.22646 -1.98122
lowerback 4.21237 -0.0314639 -0.881024
upperback -0.937361 0.0098046 3.1001
thorax -3.33187 0.0539349 3.69899
lowerneck -16.0877 -2.20894 -9.52834
upperneck 16.7165 -1.62672 4.794
head 7.94469 -0.911462 2.97712
rclavicle 4.6528e-015 -1.43125e-014
rhumerus 19.2412 21.6368 -24.9621
rradius 102.039
rwrist -12.6862
rhand -30.7 41.008
rfingers 7.12502
rthumb -3.99345 11.0657
lclavicle 4.6528e-015 -1.43125e-014
lhumerus 13.4001 -25.2822 34.5469
lradius 103.319
lwrist 1.85477
lhand -20.5204 41.7275
lfingers 7.12502
lthumb 5.83739 71.6271
rfemur -2.23243 -3.93756 21.3645
rtibia 18.6297
rfoot -13.1368 -11.6755
rtoes 2.77462
lfemur -2.62104 0.410532 -13.219
ltibia 20.8476
lfoot -15.5219 4.55444
ltoes -11.1485
914
root 7.26277 17.5653 -15.6969 -0.266705 -2.34902 -2.43252
lowerback 4.30301 0.00783858 -0.474308
upperback -0.988621 0.0926165 3.27648
thorax -3.44167 0.0905678 3.64768
lowerneck -16.1846 -2.28786 -9.46659
upperneck 16.5659 -1.65172 4.35892
head 7.91136 -0.958609 2.81499
rclavicle -6.21202e-016 -1.59028e-015
rhumerus 18.6679 23.0885 -22.7489
rradius 103.143
rwrist -14.5685
rhand -30.2967 41.8472
rfingers 7.12502
rthumb -3.604 11.898
lclavicle -6.21202e-016 -1.59028e-015
lhumerus 12.4609 -27.0136 32.643
lradius 104.668
lwrist 4.04236
lhand -20.1988 41.1276
lfingers 7.12502
lthumb 6.14785 71.0184
rfemur -2.43788 -3.5076 21.9591
rtibia 18.5397
rfoot -13.0671 -12.0206
rtoes 1.73585
lfemur -2.94035 0.406864 -12.7242
ltibia 21.0576
lfoot -15.4324 4.85497
ltoes -12.5402
915
root 7.26599 17.5692 -15.6882 -0.208306 -2.34757 -2.44013
lowerback 4.36887 0.0365791 -0.470048
upperback -0.918167 0.131698 3.31834
thorax -3.40872 0.109387 3.6859
lowerneck -16.6944 -2.40568 -9.44225
upperneck 16.7428 -1.70796 4.05453
head 8.06289 -1.01269 2.70251
rclavicle 6.1499e-015 -2.78299e-014
rhumerus 18.062 24.2291 -20.5294
rradius 104.4
rwrist -15.7083
rhand -29.3394 41.1561
rfingers 7.12502
rthumb -2.67949 11.1932
lclavicle 6.1499e-015 -2.78299e-014
lhumerus 11.7497 -28.7537 30.6024
lradius 106.143
lwrist 6.00387
lhand -19.6755 40.4041
lfingers 7.12502
lthumb 6.6531 70.2796
rfemur -2.44129 -3.58737 21.9433
rtibia 18.4429
rfoot -13.0248 -11.9638
rtoes 1.08716
lfemur -3.06391 0.324822 -12.7551
ltibia 21.2299
lfoot -15.5054 5.02004
ltoes -12.5099
916
root 7.26367 17.5714 -15.6824 -0.223234 -2.45128 -2.49148
lowerback 4.59339 0.0922613 -0.425133
upperback -0.933437 0.211507 3.29789
thorax -3.55632 0.149708 3.63458
lowerneck -16.8023 -2.34905 -9.47876
upperneck 16.7377 -1.65106 4.261
head 8.07709 -0.966153 2.78509
rclavicle -1.32937e-015 -7.15625e-015
rhumerus 17.3211 25.526 -18.5623
rradius 105.667
rwrist -16.8334
rhand -28.6303 41.8006
rfingers 7.12502
rthumb -1.99464 11.8301
lclavicle -1.32937e-015 -7.15625e-015
lhumerus 11.0157 -30.875 28.8183
lradius 107.252
lwrist 7.28576
lhand -19.7144 40.679
lfingers 7.12502
lthumb 6.61556 70.5557
rfemur -2.43 -3.51525 22.0102
rtibia 18.4886
rfoot -13.0606 -11.9531
rtoes 1.68871
lfemur -3.03231 0.380103 -12.6681
ltibia 21.2225
lfoot -15.4785 4.83202
ltoes -10.3802
917
root 7.2605 17.5746 -15.6758 -0.186804 -2.47012 -2.34122
lowerback 4.74919 0.137601 -0.545221
upperback -0.975832 0.264434 3.19426
thorax -3.69163 0.179338 3.59146
lowerneck -16.7513 -2.30902 -9.62648
upperneck 16.6306 -1.65166 4.70712
head 8.0357 -0.929578 2.95936
rclavicle -1.82323e-015 -1.27222e-014
rhumerus 16.4175 26.8188 -16.9381
rradius 106.993
rwrist -17.989
rhand -27.253 42.5632
rfingers 7.12502
rthumb -0.664471 12.5845
lclavicle -1.82323e-015 -1.27222e-014
lhumerus 10.0838 -32.9518 27.2603
lradius 108.349
lwrist 8.52203
lhand -20.1264 40.9347
lfingers 7.12502
lthumb 6.21774 70.8234
rfemur -2.5469 -3.33689 21.8744
rtibia 18.6541
rfoot -13.1963 -12.078
rtoes 2.20539
lfemur -2.97841 0.332558 -12.8139
ltibia 21.0693
lfoot -15.4704 4.69749
ltoes -8.84748
918
root 7.26841 17.5755 -15.658 -0.255889 -2.18084 -1.56294
lowerback 4.74557 0.102706 -1.1326
upperback -0.895323 0.170013 2.89746
thorax -3.60047 0.139755 3.62138
lowerneck -16.8116 -2.32067 -9.75424
upperneck 16.5806 -1.6856 4.99623
head 8.03494 -0.923313 3.07378
rclavicle -9.22485e-016 -4.77083e-015
rhumerus 15.0759 27.9986 -15.7883
rradius 108.426
rwrist -19.1849
rhand -25.2558 42.1466
rfingers 7.12502
rthumb 1.26451 12.1706
lclavicle -9.22485e-016 -4.77083e-015
lhumerus 8.9826 -34.7009 25.8345
lradius 109.683
lwrist 9.81828
lhand -19.7667 40.0554
lfingers 7.12502
lthumb 6.56508 69.9336
rfemur -2.52733 -3.72457 20.9183
rtibia 18.8874
rfoot -13.3524 -11.9664
rtoes 1.87022
lfemur -2.7924 0.0931681 -13.7556
ltibia 20.8662
lfoot -15.4925 4.75843
ltoes -9.32229
919
root 7.27614 17.5712 -15.6441 -0.393 -1.99084 -1.14604
lowerback 4.83723 0.0864792 -1.37856
upperback -0.761545 0.125216 2.72193
thorax -3.51039 0.117923 3.58074
lowerneck -16.7811 -2.28471 -9.60571
upperneck 16.3544 -1.63724 4.81437
head 7.94769 -0.905253 2.9905
rclavicle -3.721e-015 -4.77083e-015
rhumerus 13.5485 28.9843 -15.169
rradius 109.838
rwrist -20.1064
rhand -23.3347 41.7687
rfingers 7.12502
rthumb 3.11991 11.8118
lclavicle -3.721e-015 -4.77083e-015
lhumerus 7.6392 -36.3016 24.6466
lradius 111.175
lwrist 11.0323
lhand -18.8124 38.9257
lfingers 7.12502
lthumb 7.48619 68.7732
rfemur -2.46737 -4.06166 20.3699
rtibia 19.2395
rfoot -13.5797 -11.7907
rtoes 1.79807
lfemur -2.52161 0.101957 -14.2605
ltibia 20.6104
lfoot -15.2683 4.6695
ltoes -9.68248
920
root 7.27635 17.5637 -15.6332 -0.40521 -1.96811 -1.11711
lowerback 5.2087 0.0453633 -1.35924
upperback -0.938483 0.0735739 2.70431
thorax -3.89964 0.0989544 3.55928
lowerneck -16.5669 -2.13981 -9.58709
upperneck 16.2978 -1.4432 4.7066
head 7.87561 -0.823751 2.97303
rclavicle -2.28369e-015 3.02153e-014
rhumerus 12.1106 30.1596 -15.034
rradius 111.116
rwrist -20.8431
rhand -21.1975 42.39
rfingers 7.12502
rthumb 5.18366 12.4734
lclavicle -2.28369e-015 3.02153e-014
lhumerus 5.61447 -38.1698 24.1193
lradius 112.777
lwrist 11.9501
lhand -18.1695 38.1067
lfingers 7.12502
lthumb 8.10675 67.9312
rfemur -2.56196 -4.15707 20.3374
rtibia 19.5641
rfoot -13.7629 -11.7469
rtoes 1.44924
lfemur -2.37329 0.349994 -14.275
ltibia 20.4174
lfoot -15.1654 4.57333
ltoes -11.2662
921
root 7.27771 17.5569 -15.6236 -0.256408 -1.87907 -1.06062
lowerback 5.22043 -0.0978219 -1.48955
upperback -1.00283 -0.122247 2.78646
thorax -3.95888 0.00708097 3.73626
lowerneck -16.582 -1.94487 -9.56379
upperneck 16.1727 -1.1353 4.48568
head 7.81236 -0.69507 2.92868
rclavicle -4.42024e-015 1.90833e-014
rhumerus 10.9566 31.1995 -14.9314
rradius 112.346
rwrist -21.4774
rhand -19.3267 42.8016
rfingers 7.12502
rthumb 6.98983 12.937
lclavicle -4.42024e-015 1.90833e-014
lhumerus 2.84743 -39.478 24.6048
lradius 114.121
lwrist 12.2759
lhand -17.307 36.3484
lfingers 7.12502
lthumb 8.93912 66.139
rfemur -2.7593 -4.29528 20.2803
rtibia 19.6953
rfoot -13.8036 -11.772
rtoes 0.719673
lfemur -2.48977 0.490488 -14.3349
ltibia 20.4151
lfoot -15.1744 4.51868
ltoes -13.0126
922
root 7.27961 17.5596 -15.6147 -0.0623697 -1.77408 -1.11222
lowerback 5.18173 -0.260434 -1.37039
upperback -1.02029 -0.331856 2.77197
thorax -3.9397 -0.100308 3.67107
lowerneck -16.8878 -1.7792 -9.2684
upperneck 16.2075 -0.892348 4.1792
head 7.8565 -0.589317 2.80608
rclavicle 5.95422e-015 7.95139e-015
rhumerus 9.46298 32.2767 -15.3832
rradius 113.549
rwrist -21.6958
rhand -18.2159 42.6459
rfingers 7.12502
rthumb 8.06195 12.8197
lclavicle 5.95422e-015 7.95139e-015
lhumerus -0.321566 -40.4189 25.5341
lradius 115.293
lwrist 12.2325
lhand -15.9166 33.4803
lfingers 7.12502
lthumb 10.2806 63.209
rfemur -2.92927 -4.27374 20.3525
rtibia 19.7003
rfoot -13.8693 -11.8729
rtoes 0.908041
lfemur -2.7771 0.418392 -14.2689
ltibia 20.562
lfoot -15.0405 4.38524
ltoes -12.1861
923
root 7.27985 17.5686 -15.6025 0.119511 -1.82327 -1.23553
lowerback 5.08395 -0.313395 -1.20507
upperback -1.02394 -0.391585 2.77757
thorax -3.88466 -0.134563 3.58697
lowerneck -17.2012 -1.72708 -9.46836
upperneck 16.513 -0.786443 4.41252
head 8.00673 -0.531735 2.93493
rclavicle -9.03849e-016 1.59028e-014
rhumerus 7.38315 33.1401 -16.5622
rradius 114.746
rwrist -22.0045
rhand -16.9221 42.3279
rfingers 7.12502
rthumb 9.31054 12.5535
lclavicle -9.03849e-016 1.59028e-014
lhumerus -3.46067 -41.2645 26.8488
lradius 116.465
lwrist 12.0419
lhand -14.3245 31.0883
lfingers 7.12502
lthumb 11.8162 60.735
rfemur -3.0846 -4.0735 20.512
rtibia 19.6571
rfoot -13.8724 -12.0046
rtoes 1.11045
lfemur -3.08777 0.223668 -14.1481
ltibia 20.8146
lfoot -15.1396 4.48163
ltoes -10.8707
924
root 7.2775 17.5665 -15.5991 0.21257 -2.06964 -1.73277
lowerback 5.08218 -0.308781 -0.801512
upperback -0.967418 -0.352242 2.99474
thorax -3.82894 -0.122993 3.58104
lowerneck -17.2418 -1.64148 -9.76663
upperneck 16.5075 -0.6158 4.55766
head 8.00086 -0.45461 3.05302
rclavicle 5.78339e-015 3.97569e-015
rhumerus 5.39242 33.6814 -18.2647
rradius 115.905
rwrist -22.5487
rhand -15.5981 41.3893
rfingers 7.12502
rthumb 10.5879 11.676
lclavicle 5.78339e-015 3.97569e-015
lhumerus -7.08256 -41.64 28.8561
lradius 117.73
lwrist 11.91
lhand -12.3504 29.3089
lfingers 7.12502
lthumb 13.7193 58.8366
rfemur -3.16379 -3.68109 21.118
rtibia 19.5146
rfoot -13.6814 -12.1823
rtoes 1.08247
lfemur -3.29278 0.356887 -13.6027
ltibia 21.1512
lfoot -15.3256 4.68539
ltoes -11.7089
925
root 7.27465 17.5596 -15.5991 0.214882 -2.31036 -2.13175
lowerback 5.29162 -0.335668 -0.449872
upperback -0.932262 -0.357763 3.15277
thorax -3.91161 -0.131297 3.54978
lowerneck -17.0789 -1.44028 -9.5658
upperneck 16.2011 -0.336899 4.20415
head 7.84871 -0.339559 2.92773
rclavicle -8.90183e-015 6.36111e-015
rhumerus 3.37372 34.1024 -20.5575
rradius 116.967
rwrist -23.0921
rhand -14.7996 40.8642
rfingers 7.12502
rthumb 11.358 11.1918
lclavicle -8.90183e-015 6.36111e-015
lhumerus -10.9042 -41.584 31.2484
lradius 118.882
lwrist 11.8846
lhand -10.2624 27.6883
lfingers 7.12502
lthumb 15.7309 57.069
rfemur -3.10379 -3.38391 21.6205
rtibia 19.3376
rfoot -13.4553 -12.2564
rtoes 0.570429
lfemur -3.40697 0.763241 -13.1069
ltibia 21.475
lfoot -15.3692 4.62153
ltoes -12.3857
926
root 7.27643 17.5627 -15.5872 0.270179 -2.45374 -2.25666
lowerback 5.35615 -0.375563 -0.301752
upperback -0.927293 -0.399741 3.16918
thorax -3.94099 -0.155145 3.48753
lowerneck -17.1994 -1.32848 -9.13583
upperneck 16.253 -0.18756 3.71865
head 7.87605 -0.290503 2.71232
rclavicle 1.15047e-014 -1.66979e-014
rhumerus 0.818217 34.3493 -23.4718
rradius 118.068
rwrist -23.8964
rhand -13.9897 41.0076
rfingers 7.12502
rthumb 12.1391 11.3798
lclavicle 1.15047e-014 -1.66979e-014
lhumerus -14.552 -41.2338 33.7924
lradius 119.894
lwrist 12.205
lhand -8.30207 26.4412
lfingers 7.12502
lthumb 17.6182 55.663
rfemur -3.07331 -3.38545 21.7688
rtibia 19.2796
rfoot -13.3801 -12.1885
rtoes -0.637308
lfemur -3.50867 0.86001 -12.9432
ltibia 21.6539
lfoot -15.4115 4.57681
ltoes -11.582
